<?xml version="1.0" encoding="utf-8"?>
<?xml-stylesheet type="text/xsl" href="rss1.xsl"?>
<rss version="2.0" xmlns:atom="http://www.w3.org/2005/Atom" xmlns:content="http://purl.org/rss/1.0/modules/content/" xmlns:dc="http://purl.org/dc/elements/1.1/" xmlns:media="http://search.yahoo.com/mrss/">
<channel>
 <title>Getty</title>
 <link>http://www.gettyimg.com/</link>
 <atom:link href="http://www.gettyimg.com/" rel="self" type="application/rss+xml" />

 
                <item>
                <title><![CDATA[【Cinema Center】SERIES - The Villains of Valley View - Season 2 - 1080p Amazon WEB-DL DDP5.1 H.264-LAZY]]></title>
                <link><![CDATA[https://sharemania.us/threads/the-villains-of-valley-view-season-2-1080p-amazon-web-dl-ddp5-1-h-264-lazy.247540/]]></link>
                <description><![CDATA[<article>
<blockquote class="messageText SelectQuoteContainer ugc baseHtml">
The Villains of Valley View:<img src="https://i.imgur.com/FYk6taz.jpg" class="bbCodeImage LbImage" alt="[​IMG]" data-url="https://i.imgur.com/FYk6taz.jpg" style=""><br>
<br>
<div class="bbCodeBlock bbCodeQuote">
<aside>
<blockquote class="quoteContainer"><div class="quote"><i><b>Synopsis:</b></i><br>
When teenage supervillain Havoc stands up to the head of the League of Villains, her family is forced to change their identities and relocate to a sleepy Texas suburb. With the help of her effervescent new neighbor Hartley, Havoc — going incognito as Amy — must somehow hide her superpowers and quell her villainous nature in favor of something she and the rest of her family have fought against all their lives: being normal.</div><div class="quoteExpand">Click to expand...</div></blockquote>
</aside>
</div>
<div class="ToggleTriggerAnchor bbCodeSpoilerContainer">
<button type="button" class="button bbCodeSpoilerButton ToggleTrigger Tooltip JsOnly" data-target="> .SpoilerTarget"><span>Spoiler: <span class="SpoilerTitle">MediaInfo</span></span></button>
<div class="SpoilerTarget bbCodeSpoilerText">General<br>
Unique ID : 30962527697908930335623653697116919611 (0x174B2A7A0B126512ACB68CFEF89F573B)<br>
Complete name : The.Villains.of.Valley.View.S02E01.Villain.Number.One.Part.1.1080p.AMZN.WEB-DL.DDP5.1.H.264-LAZY.mkv<br>
Format : Matroska<br>
Format version : Version 4<br>
File size : 1.50 GiB<br>
Duration : 24 min 59 s<br>
Overall bit rate : 8 608 kb/s<br>
Frame rate : 23.976 FPS<br>
Encoded date : 2024-06-17 14:53:55 UTC<br>
Writing application : mkvmerge v84.0 ('Sleeper') 64-bit<br>
Writing library : libebml v1.4.5 + libmatroska v1.7.1<br>
<br>
Video<br>
ID : 1<br>
Format : AVC<br>
Format/Info : Advanced Video Codec<br>
Format profile : High@L4<br>
Format settings : CABAC / 4 Ref Frames<br>
Format settings, CABAC : Yes<br>
Format settings, Reference frames : 4 frames<br>
Codec ID : V_MPEG4/ISO/AVC<br>
Duration : 24 min 59 s<br>
Bit rate mode : Constant<br>
Bit rate : 7 966 kb/s<br>
Nominal bit rate : 10 000 kb/s<br>
Width : 1 920 pixels<br>
Height : 1 080 pixels<br>
Display aspect ratio : 16:9<br>
Frame rate mode : Constant<br>
Frame rate : 23.976 (24000/1001) FPS<br>
Color space : YUV<br>
Chroma subsampling : 4:2:0<br>
Bit depth : 8 bits<br>
Scan type : Progressive<br>
Bits/(Pixel*Frame) : 0.160<br>
Stream size : 1.39 GiB (93%)<br>
Default : Yes<br>
Forced : No<br>
Color range : Limited<br>
Color primaries : BT.709<br>
Transfer characteristics : BT.709<br>
Matrix coefficients : BT.709<br>
<br>
Audio<br>
ID : 2<br>
Format : E-AC-3<br>
Format/Info : Enhanced AC-3<br>
Commercial name : Dolby Digital Plus<br>
Codec ID : A_EAC3<br>
Duration : 24 min 59 s<br>
Bit rate mode : Constant<br>
Bit rate : 640 kb/s<br>
Channel(s) : 6 channels<br>
Channel layout : L R C LFE Ls Rs<br>
Sampling rate : 48.0 kHz<br>
Frame rate : 31.250 FPS (1536 SPF)<br>
Compression mode : Lossy<br>
Stream size : 114 MiB (7%)<br>
Language : English<br>
Service kind : Complete Main<br>
Default : Yes<br>
Forced : No<br>
<br>
Text<br>
ID : 3<br>
Format : UTF-8<br>
Codec ID : S_TEXT/UTF8<br>
Codec ID/Info : UTF-8 Plain Text<br>
Duration : 24 min 29 s<br>
Bit rate : 101 b/s<br>
Frame rate : 0.319 FPS<br>
Count of elements : 469<br>
Stream size : 18.3 KiB (0%)<br>
Title : SDH<br>
Language : English<br>
Default : No<br>
Forced : No</div>
</div><br>
Screenshots:<br>
<img src="https://ptpimg.me/g9kpeq.jpg" class="bbCodeImage LbImage" alt="[​IMG]" data-url="https://ptpimg.me/g9kpeq.jpg" style=""> <br>
<div class="bbCodeBlock bbCodeVfcHH HiddenContent">
<div class="attribution type">Hidden Content:</div>
<blockquote>You must either reply or click 'Like' to see the hidden information contained here.</blockquote>
</div>
<div class="messageTextEndMarker">&nbsp;</div>
</blockquote>
</article>]]></description>
                <author><![CDATA[LazyRips]]></author>
                </item>

                
                <item>
                <title><![CDATA[【Unreleased/Unofficial (lossy)】Avril Lavigne - Fall Into The Sky (Unreleased)]]></title>
                <link><![CDATA[https://sharemania.us/threads/avril-lavigne-fall-into-the-sky-unreleased.247542/]]></link>
                <description><![CDATA[<article>
<blockquote class="messageText SelectQuoteContainer ugc baseHtml">
Looking for a HQ or OG file of the Unreleased song "Fall Into The Sky" by Avril Lavigne, someone could please post it?
<div class="messageTextEndMarker">&nbsp;</div>
</blockquote>
</article>]]></description>
                <author><![CDATA[mrdonutsssscake]]></author>
                </item>

                
                <item>
                <title><![CDATA[【Music Videos】Alicia Keys - Fallin'  [1080p AM HD Remaster | PCM 24-bit 96 kHz | DTS-HD MA 5.1]]]></title>
                <link><![CDATA[https://sharemania.us/threads/alicia-keys-fallin-1080p-am-hd-remaster-pcm-24-bit-96-khz-dts-hd-ma-5-1.247541/]]></link>
                <description><![CDATA[<article>
<blockquote class="messageText SelectQuoteContainer ugc baseHtml">
<b><img src="https://images2.imgbox.com/5a/dc/aPYiXvjz_o.jpg" class="bbCodeImage LbImage" alt="[​IMG]" data-url="https://images2.imgbox.com/5a/dc/aPYiXvjz_o.jpg" style=""> <br>
<br>
Genre: <span style="color: #0059b3">Hip Hop, Funk / Soul</span> <br>
Style: <span style="color: #0059b3">Contemporary R&amp;B, Neo Soul</span> <br>
Year: <span style="color: #0059b3">2001</span> <br>
Video Source: <span style="color: #0059b3">Apple Music, HD Remaster, thanks SonMaxime</span><br>
Audio Source: <span style="color: #0059b3">DVDA, MLP 24-bit 96 kHz, 2.0 &amp; 5.1</span></b><br>
<br>
"<b>Fallin'</b>" is the debut single of American singer-songwriter Alicia Keys from her debut studio album, Songs in A Minor (2001). Written and produced by Keys, "Fallin'" is generally considered her signature song. It was released as the lead single from <i>Songs in A Minor</i> on April 10, 2001, by J Records. The official remix features rappers Busta Rhymes and Rampage.<br>
<br>
"Fallin'" attained global commercial success, reaching number one on the US <i>Billboard</i> Hot 100 and the top 10 in several countries, topping the charts of Flanders, the Netherlands, and New Zealand. In 2009, "Fallin'" was named the 29th most successful song of the 2000s, on the <i>Billboard</i> Hot 100 Songs of the Decade. Critically acclaimed, it won three Grammy Awards in 2002, including Song of the Year, Best R&amp;B Song, and Best Female R&amp;B Vocal Performance, and was also nominated for Record of the Year.<br>
<br>
"Fallin'" was written and produced solely by Keys. When asked about the lyrical background for the song, Keys told <i>Billboard</i>: "I wanted to write a song for someone who was 10 or 12 years old – like a young Michael Jackson. Even though he was young, he was singing some deep stuff back then. [The song] is about the ins and outs of a relationship. Sometimes, you're completely head-over-heels in love with someone, and sometimes you can't stand that person. You fall in and out, sometimes it goes back and forth, and that's just what relationships are about."<br>
<br>
The accompanying music video for "Fallin'" was directed by Chris Robinson. The plot has Keys traveling to a prison to visit her incarcerated boyfriend. The plot is continued in the video for Keys' next single "A Woman's Worth", which explores what happens when Keys' boyfriend is released and, with her help, adjusts back to regular life. Keys said in an interview that originally, she was supposed to be the one incarcerated, and her boyfriend was visiting her.<br>
<br>
<b>Release Info</b><br>
The video track is downloaded from Apple Music by SonMaxime and is mostly left as is (minus the Intro).<br>
The audio tracks are ripped from the DVDA release of Songs in A Minor, synced with Adobe Audition.<br>
The timed lyrics are synced and edited. Enable the subtitles to see the lyrics.<br>
<br>
<div class="ToggleTriggerAnchor bbCodeSpoilerContainer">
<button type="button" class="button bbCodeSpoilerButton ToggleTrigger Tooltip JsOnly" data-target="> .SpoilerTarget"><span>Spoiler: <span class="SpoilerTitle">Media Info</span></span></button>
<div class="SpoilerTarget bbCodeSpoilerText">
<div class="bbCodeBlock bbCodeCode">
<div class="type">Code:</div>
<pre>General
Unique ID                      : 324737574460819179716866812131396162232 (0xF44E2E8F2CCCD847E454EDCDC36E12B8)
Complete name                  : Alicia Keys - Fallin'.mkv
Format                         : Matroska
Format version                 : Version 4 / Version 2
File size                      : 476 MiB
Duration                       : 3 min 17 s
Overall bit rate               : 20.2 Mb/s
Frame rate                     : 24.000 FPS
Encoded date                   : 2024-06-20 18:06:08 UTC
Writing application            : mkvmerge v85.0 ('Shame For You') 64-bit
Writing library                : libebml v1.4.5 + libmatroska v1.7.1
Cover                          : Yes
Attachments                    : cover.jpg

Video
ID                             : 1
Format                         : AVC
Format/Info                    : Advanced Video Codec
Format profile                 : High@L4
Format settings                : CABAC / 5 Ref Frames
Format settings, CABAC         : Yes
Format settings, Reference fra : 5 frames
Format settings, Slice count   : 8 slices per frame
Codec ID                       : V_MPEG4/ISO/AVC
Duration                       : 3 min 16 s
Bit rate                       : 6 558 kb/s
Width                          : 1 420 pixels
Height                         : 1 080 pixels
Display aspect ratio           : 4:3
Frame rate mode                : Constant
Frame rate                     : 24.000 FPS
Color space                    : YUV
Chroma subsampling             : 4:2:0
Bit depth                      : 8 bits
Scan type                      : Progressive
Bits/(Pixel*Frame)             : 0.178
Stream size                    : 153 MiB (32%)
Default                        : Yes
Forced                         : No
Color range                    : Limited
Color primaries                : BT.709
Transfer characteristics       : BT.709
Matrix coefficients            : BT.709

Audio #1
ID                             : 2
Format                         : PCM
Format settings                : Little / Signed
Codec ID                       : A_PCM/INT/LIT
Duration                       : 3 min 17 s
Bit rate mode                  : Constant
Bit rate                       : 4 608 kb/s
Channel(s)                     : 2 channels
Sampling rate                  : 96.0 kHz
Frame rate                     : 25.003 FPS (3840 SPF)
Bit depth                      : 24 bits
Stream size                    : 108 MiB (23%)
Language                       : English
Default                        : Yes
Forced                         : No

Audio #2
ID                             : 3
Format                         : DTS x96 XLL
Format/Info                    : Digital Theater Systems
Commercial name                : DTS-HD Master Audio
Codec ID                       : A_DTS
Duration                       : 3 min 17 s
Bit rate mode                  : Variable / Constant / Constant
Bit rate                       : 9 078 kb/s / 1 509 kb/s / 1 509 kb/s
Channel(s)                     : 6 channels
Channel layout                 : C L R Ls Rs LFE
Sampling rate                  : 96.0 kHz / 96.0 kHz / 48.0 kHz
Frame rate                     : 93.750 FPS (1024 SPF) / 93.750 FPS (1024 SPF) / 93.750 FPS (512 SPF)
Bit depth                      : 24 bits
Compression mode               : Lossless / Lossy / Lossy
Stream size                    : 214 MiB (45%)
Language                       : English
Default                        : Yes
Forced                         : No

Text
ID                             : 4
Format                         : UTF-8
Codec ID                       : S_TEXT/UTF8
Codec ID/Info                  : UTF-8 Plain Text
Duration                       : 2 min 54 s
Bit rate                       : 50 b/s
Frame rate                     : 0.349 FPS
Count of elements              : 61
Stream size                    : 1.08 KiB (0%)
Title                          : Lyrics
Language                       : English
Default                        : No
Forced                         : No
</pre>
</div></div>
</div><br>
<b>Note to the peeps @ RuTracker: Give credit if you post the work of someone else!</b><br>
- Hurby4 aka ADHDerby<br>
<br>
<div class="bbCodeBlock bbCodeVfcHH HiddenContent">
<div class="attribution type">Hidden Content:</div>
<blockquote>You must reply before you can see the hidden data contained here.</blockquote>
</div>
<div class="messageTextEndMarker">&nbsp;</div>
</blockquote>
</article>]]></description>
                <author><![CDATA[ADHDerby]]></author>
                </item>

                </channel></rss>